<mxfile host="app.diagrams.net" modified="2020-11-07T09:33:50.760Z" agent="5.0 (Windows NT 10.0; WOW64) AppleWebKit/537.36 (KHTML, like Gecko) Chrome/80.0.3987.163 Safari/537.36" etag="NIvXh56uUtzbhL_QfkT8" version="13.9.2" type="github">
  <diagram id="B5ivyY0jE9ZnwziNtbk5" name="Page-1">
    <mxGraphModel dx="981" dy="532" grid="0" gridSize="10" guides="1" tooltips="1" connect="1" arrows="1" fold="1" page="1" pageScale="1" pageWidth="827" pageHeight="1169" math="0" shadow="0">
      <root>
        <mxCell id="0" />
        <mxCell id="1" parent="0" />
        <mxCell id="6Yr4SAd2Wl5QwvCFgg5Z-1" style="edgeStyle=orthogonalEdgeStyle;rounded=0;orthogonalLoop=1;jettySize=auto;html=1;" edge="1" parent="1" source="ajzKI2GSw-f7DMzIorPm-1" target="ajzKI2GSw-f7DMzIorPm-2">
          <mxGeometry relative="1" as="geometry" />
        </mxCell>
        <mxCell id="ajzKI2GSw-f7DMzIorPm-1" value="肖祥文" style="rounded=0;whiteSpace=wrap;html=1;fillColor=#dae8fc;strokeColor=#6c8ebf;fontSize=24;" parent="1" vertex="1">
          <mxGeometry x="155" y="98" width="180" height="120" as="geometry" />
        </mxCell>
        <mxCell id="ajzKI2GSw-f7DMzIorPm-2" value="" style="ellipse;whiteSpace=wrap;html=1;" parent="1" vertex="1">
          <mxGeometry x="442" y="281" width="60" height="40" as="geometry" />
        </mxCell>
      </root>
    </mxGraphModel>
  </diagram>
</mxfile>
